<svg xmlns="http://www.w3.org/2000/svg" viewBox="115 236 805 294">
<defs><linearGradient id="gradient_0" gradientUnits="userSpaceOnUse" x1="832.6214" y1="463.448" x2="730.09137" y2="397.84933"><stop offset="0" stop-color="#B48D47"/><stop offset="1" stop-color="#DFBC84"/></linearGradient></defs>
<path fill="#0EBAE4" d="M137.866 468.25C248.744 403.414 357.082 385.391 483.003 409.951C499.104 413.092 515.041 417.434 530.972 421.338C552.09 426.514 573.116 432.176 594.264 437.193C605.803 439.93 617.446 442.226 629.033 444.751C687.507 457.497 746.95 466.128 806.84 459.902C839.288 456.528 872 449.696 902.394 437.676L910.07 434.413C908.245 436.154 906.332 438.115 904.307 439.579C844.014 486.929 775.451 514.914 698.47 519.828C671.149 521.43 643.738 520.484 616.592 517.002C559.118 510.153 506.08 493.224 452.052 474.838C372.507 447.768 287.623 434.984 204.797 453.697C183.569 458.378 160.459 463.283 139.757 471.095C137.829 471.787 135.682 472.498 133.816 473.29L132.436 471.354L137.866 468.25Z"/>
<path fill="#FFFFFF" d="M263.234 317.384L308.227 317.26C312.209 317.24 329.666 316.878 332.61 317.678C342.025 320.235 354.325 324.698 363.769 327.897C389.162 336.702 414.701 345.082 440.374 353.034C455.021 357.577 471.8 363.277 486.846 364.803C527.621 368.937 563.712 347.745 597.808 328.067C635.508 306.309 643.814 312.463 683.233 323.694C710.157 331.304 736.947 339.379 763.591 347.916C776.803 351.941 789.984 356.066 803.133 360.29C813.599 363.606 827.495 367.285 836.73 373.076C853.585 383.643 871.523 396.441 887.06 408.821C851.75 407.935 813.744 408.528 778.272 408.666L615.923 408.77C587.809 408.674 559.517 409.43 531.417 408.553C526.229 408.391 515.076 405.082 509.66 403.484C501.425 401.054 494.668 399.531 486.353 397.668C448.976 389.292 411.067 385.124 372.752 385.595C339.448 386.004 308.856 391.079 276.675 399.438C270.106 401.164 263.59 403.085 257.135 405.197C253.79 406.276 244.667 409.494 241.544 409.644C231.514 410.127 221.08 409.627 210.911 409.968L279.399 381.443C291.285 376.574 303.288 372.223 314.901 366.774C314.942 362.069 315.028 357.299 315.006 352.6C290.553 340.826 266.145 329.75 241.597 318.24C244.348 317.143 258.727 317.776 263.234 317.384Z"/>
<path fill="#FFFFFF" d="M577.964 246.099C581.973 245.648 586.96 245.775 590.926 246.536C663.221 260.409 732.009 288.182 791.6 331.703C795.199 334.331 813.456 347.1 815.433 349.806L815.014 350.204L812.314 349.663C798.794 345.818 784.951 341.202 771.487 337.056C745.866 329.023 720.035 321.674 694.023 315.016C669.748 308.749 652.81 304.443 627.915 301.08C626.073 299.287 624.067 297.19 622.275 295.176C608.073 279.214 589.123 268.112 574.372 253.112C573.459 252.185 573.49 250.11 573.883 248.895C575.3 247.157 575.847 247.08 577.964 246.099Z"/>
<path fill="#FFFFFF" d="M342.662 289.605C345.447 289.417 348.238 289.464 351.028 289.473C380.635 289.562 410.251 289.354 439.856 289.527C443.685 289.55 449.255 290.22 452.577 292.06C459.197 295.727 464.712 301.193 470.485 306.013C479.276 313.595 488.254 321.341 496.819 329.185C505.134 336.8 516.135 344.952 523.652 352.933C519.178 353.688 511.848 353.961 507.125 354.276C483.233 355.541 476.771 353.088 454.716 345.847L412.117 331.867C392.633 325.738 373.199 319.453 353.817 313.013C346.322 310.536 333.627 306.727 326.713 303.724C329.546 294.516 333.017 291.093 342.662 289.605Z"/>
<path fill="url(#gradient_0)" d="M860.413 421.528C860.976 421.467 861.285 421.578 861.854 421.682C853.483 428.649 844.564 435.988 834.381 440.099C809.744 450.045 753.248 447.69 725.977 445.21C720.652 444.725 715.14 444.489 709.868 443.633L712.747 443.354L712.058 443.635L712.781 443.446L712.782 443.101C711.87 442.959 710.961 442.796 710.057 442.611C711.066 440.687 713.392 434.721 713.868 432.405C714.433 429.665 712.696 427.277 714.124 423.682C715.789 422.796 718.422 422.97 720.41 422.922C719.775 422.313 719.309 422.411 718.188 422.133L840.237 421.897C845.108 422.137 849.99 422.024 854.845 421.558C856.685 421.611 858.565 421.547 860.413 421.528Z"/>
<path fill="#E2C38B" d="M632.6 422.433C638.647 421.746 654.694 422.093 661.191 422.07C680.19 421.965 699.189 421.986 718.188 422.133C719.309 422.411 719.775 422.313 720.41 422.922C718.422 422.97 715.789 422.796 714.124 423.682C712.696 427.277 714.433 429.665 713.868 432.405C713.392 434.721 711.066 440.687 710.057 442.611C710.961 442.796 711.87 442.959 712.782 443.101L712.781 443.446L712.058 443.635L712.747 443.354L709.868 443.633C686.671 440.779 664.37 437.573 641.631 432.058C631.934 429.705 621.799 427.602 612.567 423.779C616.473 422.009 627.529 424.01 632.6 422.433Z"/>
<path fill="#FFFEFE" fill-opacity="0.29411766" d="M851.429 421.316L850.84 419.844C850.531 419.052 848.995 415.602 849.294 414.807C849.76 413.568 852.127 412.613 853.271 412.335C856.469 411.557 857.909 411.357 860.811 413.338C862.173 414.268 861.87 417.614 861.42 418.999C861.163 419.724 861.738 420.809 861.854 421.682C861.285 421.578 860.976 421.467 860.413 421.528C859.098 419.495 858.082 418.071 855.338 418.177C853.817 418.235 854.781 420.446 854.803 420.809L854.845 421.558C849.99 422.024 845.108 422.137 840.237 421.897C842.756 421.515 849.01 421.361 851.966 421.274L851.429 421.316Z"/>
<path fill="#D7AD64" fill-opacity="0.95686275" d="M612.567 423.779C612.085 423.614 610.743 423.161 610.456 422.737L610.552 422.604C611.987 422.106 630.277 422.276 632.6 422.433C627.529 424.01 616.473 422.009 612.567 423.779Z"/>
<path fill="#FFFEFE" fill-opacity="0.39215687" d="M854.845 421.558L854.803 420.809C854.781 420.446 853.817 418.235 855.338 418.177C858.082 418.071 859.098 419.495 860.413 421.528C858.565 421.547 856.685 421.611 854.845 421.558Z"/>
<path fill="#FFFFFF" fill-opacity="0.94509804" d="M241.597 318.24C241.111 318.083 239.844 317.762 239.626 317.244L239.667 317.15C240.354 316.811 261.502 317.232 263.234 317.384C258.727 317.776 244.348 317.143 241.597 318.24Z"/>
<path fill="#0EBAE4" fill-opacity="0.98823529" d="M132.436 471.354L133.816 473.29C130.366 474.536 128.222 475.218 124.633 476.238C127.107 474.606 129.84 472.776 132.436 471.354Z"/>
</svg>
