<?xml version="1.0" encoding="utf-8" ?><svg xmlns="http://www.w3.org/2000/svg" xmlns:xlink="http://www.w3.org/1999/xlink" width="1024" height="1024" viewBox="0 0 1024 1024"><path fill="#0EBAE4" d="M137.866 468.25C248.744 403.414 357.082 385.391 483.003 409.951C499.104 413.092 515.041 417.434 530.972 421.338C552.09 426.514 573.116 432.176 594.264 437.193C605.803 439.93 617.446 442.226 629.033 444.751C687.507 457.497 746.95 466.128 806.84 459.902C839.288 456.528 872 449.696 902.394 437.676L910.07 434.413C908.245 436.154 906.332 438.115 904.307 439.579C844.014 486.929 775.451 514.914 698.47 519.828C671.149 521.43 643.738 520.484 616.592 517.002C559.118 510.153 506.08 493.224 452.052 474.838C372.507 447.768 287.623 434.984 204.797 453.697C183.569 458.378 160.459 463.283 139.757 471.095C137.829 471.787 135.682 472.498 133.816 473.29L132.436 471.354L137.866 468.25Z"/><path fill="#FFFFFF" d="M263.234 317.384L308.227 317.26C312.209 317.24 329.666 316.878 332.61 317.678C342.025 320.235 354.325 324.698 363.769 327.897C389.162 336.702 414.701 345.082 440.374 353.034C455.021 357.577 471.8 363.277 486.846 364.803C527.621 368.937 563.712 347.745 597.808 328.067C635.508 306.309 643.814 312.463 683.233 323.694C710.157 331.304 736.947 339.379 763.591 347.916C776.803 351.941 789.984 356.066 803.133 360.29C813.599 363.606 827.495 367.285 836.73 373.076C853.585 383.643 871.523 396.441 887.06 408.821C851.75 407.935 813.744 408.528 778.272 408.666L615.923 408.77C587.809 408.674 559.517 409.43 531.417 408.553C526.229 408.391 515.076 405.082 509.66 403.484C501.425 401.054 494.668 399.531 486.353 397.668C448.976 389.292 411.067 385.124 372.752 385.595C339.448 386.004 308.856 391.079 276.675 399.438C270.106 401.164 263.59 403.085 257.135 405.197C253.79 406.276 244.667 409.494 241.544 409.644C231.514 410.127 221.08 409.627 210.911 409.968L279.399 381.443C291.285 376.574 303.288 372.223 314.901 366.774C314.942 362.069 315.028 357.299 315.006 352.6C290.553 340.826 266.145 329.75 241.597 318.24C244.348 317.143 258.727 317.776 263.234 317.384Z"/><path fill="#FFFFFF" d="M621.278 579.295C639.29 578.359 661.135 580.08 677.885 587.217C686.506 590.891 692.517 597.101 698.452 604.169C689.44 608.89 675.043 617.017 666.891 622.703C658.503 613.379 643.136 611.756 631.272 611.42C625.738 611.264 607.521 610.539 605.032 616.821C605.744 619.853 610.254 621.528 612.981 621.962C637.357 625.844 663.925 623.287 686.99 633.016C690.39 634.451 693.666 636.422 696.333 638.976C707.227 649.405 707.266 674.586 696.633 684.599C680.954 699.364 658.17 702.191 637.797 702.524C609.675 702.749 568.763 700.965 557.144 669.935C566.313 666.157 579.643 659.381 588.721 656.807C603.841 668.215 622.201 668.709 640.404 669.021C643.859 669.081 655.847 668.556 657.404 665.376C662.938 654.077 635.859 656.581 630.333 655.446C612.103 654.044 589.088 654.172 574.145 642.603C561.99 633.193 561.051 608.125 571.345 597.054C583.648 583.319 603.808 580.642 621.278 579.295Z"/><path fill="#FFFFFF" d="M257.067 582.246L374.989 582.012L375.109 615.486L327.455 615.47C317.117 615.427 306.197 615.134 295.91 615.519C295.737 619.142 295.841 622.241 295.958 625.872C303.888 626.205 313.733 625.985 321.8 626.011L372.486 626.118L372.495 654.553L323.398 654.521C314.38 654.495 305.325 654.742 296.311 654.654C296.077 658.391 296.2 662.702 296.223 666.497C322.594 666.838 348.969 666.814 375.34 666.425C375.131 677.377 375.195 688.559 375.134 699.53L254.91 699.591C255.01 689.721 254.456 583.785 255.296 582.534L257.067 582.246Z"/><path fill="#FFFFFF" d="M803.544 582.372C820.494 581.713 839.655 582.055 856.758 582C854.051 585.64 845.77 592.408 841.994 595.711L816.44 618.031C811.517 622.319 805.967 626.824 801.388 631.374C812.934 644.925 825.209 657.973 836.698 671.673C844.769 681.206 853.754 689.926 861.476 699.6C844.956 699.76 828.187 699.549 811.64 699.507C799.553 685.088 787.953 670.155 775.86 655.814C768.247 662.129 764.219 667.074 755.276 673.744C754.895 682.287 755.191 690.919 755.228 699.491L714.529 699.478C714.322 669.949 714.262 640.42 714.351 610.891C714.361 606.683 714.06 585.213 714.746 582.671L715.676 582.254C727.793 581.732 742.706 582.097 755.034 582.068C754.927 595.203 754.889 612.954 755.583 625.902C765.003 618.193 775.066 607.953 784.27 599.87C789.146 595.587 798.631 585.14 803.544 582.372Z"/><path fill="#FFFFFF" d="M383.531 582.243C397.885 581.551 417.805 582.193 432.644 582.176C460.713 582.144 489.201 581.9 517.23 582.21L517.143 615.451C501.634 615.405 486.124 615.442 470.614 615.562C470.163 627.108 470.495 641.027 470.474 652.75L470.431 699.588C457.026 699.763 443.205 699.578 429.767 699.567C430.241 672.046 429.905 643.213 429.769 615.61C414.586 615.3 398.786 615.51 383.557 615.509C383.43 604.501 383.536 593.269 383.531 582.243Z"/><path fill="#FFFFFF" d="M202.348 582.252L242.049 582.105C242.563 592.575 241.984 607.4 241.995 618.422C242.005 628.795 242.53 646.651 241.583 656.283C241.117 661.11 240.069 665.863 238.462 670.439C225.869 705.684 173.89 707.802 144.377 697.17C124.197 689.149 116.087 674.095 113.301 653.352C125.261 652.775 144.585 653.247 156.696 653.604C159.985 661.796 163.376 665.792 172.738 667.256C180.185 668.38 188.287 667.986 194.592 663.46C202.631 657.691 201.112 644.801 201.098 635.959L201.019 600.207C201.014 596.441 200.757 586.028 201.202 582.666L202.348 582.252Z"/><path fill="#FFFFFF" d="M577.964 246.099C581.973 245.648 586.96 245.775 590.926 246.536C663.221 260.409 732.009 288.182 791.6 331.703C795.199 334.331 813.456 347.1 815.433 349.806L815.014 350.204L812.314 349.663C798.794 345.818 784.951 341.202 771.487 337.056C745.866 329.023 720.035 321.674 694.023 315.016C669.748 308.749 652.81 304.443 627.915 301.08C626.073 299.287 624.067 297.19 622.275 295.176C608.073 279.214 589.123 268.112 574.372 253.112C573.459 252.185 573.49 250.11 573.883 248.895C575.3 247.157 575.847 247.08 577.964 246.099Z"/><path fill="#FFFFFF" d="M342.662 289.605C345.447 289.417 348.238 289.464 351.028 289.473C380.635 289.562 410.251 289.354 439.856 289.527C443.685 289.55 449.255 290.22 452.577 292.06C459.197 295.727 464.712 301.193 470.485 306.013C479.276 313.595 488.254 321.341 496.819 329.185C505.134 336.8 516.135 344.952 523.652 352.933C519.178 353.688 511.848 353.961 507.125 354.276C483.233 355.541 476.771 353.088 454.716 345.847L412.117 331.867C392.633 325.738 373.199 319.453 353.817 313.013C346.322 310.536 333.627 306.727 326.713 303.724C329.546 294.516 333.017 291.093 342.662 289.605Z"/><path fill="#FFFFFF" d="M868.434 582.257C879.937 581.583 896.589 582.086 908.456 582.119C908.345 592.662 909.304 697.597 907.876 699.506L867.589 699.667C867.683 685.262 867.327 584.547 868.434 582.257Z"/><defs><linearGradient id="gradient_0" gradientUnits="userSpaceOnUse" x1="832.6214" y1="463.448" x2="730.09137" y2="397.84933"><stop offset="0" stop-color="#B48D47"/><stop offset="1" stop-color="#DFBC84"/></linearGradient></defs><path fill="url(#gradient_0)" d="M860.413 421.528C860.976 421.467 861.285 421.578 861.854 421.682C853.483 428.649 844.564 435.988 834.381 440.099C809.744 450.045 753.248 447.69 725.977 445.21C720.652 444.725 715.14 444.489 709.868 443.633L712.747 443.354L712.058 443.635L712.781 443.446L712.782 443.101C711.87 442.959 710.961 442.796 710.057 442.611C711.066 440.687 713.392 434.721 713.868 432.405C714.433 429.665 712.696 427.277 714.124 423.682C715.789 422.796 718.422 422.97 720.41 422.922C719.775 422.313 719.309 422.411 718.188 422.133L840.237 421.897C845.108 422.137 849.99 422.024 854.845 421.558C856.685 421.611 858.565 421.547 860.413 421.528Z"/><path fill="#E2C38B" d="M632.6 422.433C638.647 421.746 654.694 422.093 661.191 422.07C680.19 421.965 699.189 421.986 718.188 422.133C719.309 422.411 719.775 422.313 720.41 422.922C718.422 422.97 715.789 422.796 714.124 423.682C712.696 427.277 714.433 429.665 713.868 432.405C713.392 434.721 711.066 440.687 710.057 442.611C710.961 442.796 711.87 442.959 712.782 443.101L712.781 443.446L712.058 443.635L712.747 443.354L709.868 443.633C686.671 440.779 664.37 437.573 641.631 432.058C631.934 429.705 621.799 427.602 612.567 423.779C616.473 422.009 627.529 424.01 632.6 422.433Z"/><path fill="#FFFFFF" d="M697.947 745.672C704.905 745.055 720.044 745.97 721.923 755.253C724.491 767.941 720.101 774.851 707.46 777.455C699.693 777.824 690.39 777.913 685.098 770.97C681.297 765.984 682.049 756.469 685.402 751.467C688.054 747.51 693.581 746.356 697.947 745.672ZM709.03 773.332C716.453 770.768 720.251 765.331 717.78 757.195C715.202 748.709 703.873 749.072 696.663 749.59C688.72 752.214 686.081 755.879 687.466 764.505C689.095 774.649 701.188 774.096 709.03 773.332Z"/><path fill="#FFFFFF" d="M185.839 746.121C199.32 745.596 222.937 742.447 222.454 761.502C222.318 766.834 221.217 769.681 217.448 773.297L216.897 773.638C209.037 778.604 195.159 777.15 185.782 777.098C185.508 768.977 186.141 760.423 185.731 752.25C185.6 749.645 185.633 748.69 185.839 746.121ZM189.933 773.436C199.029 773.623 206.862 774.646 214.604 770.345C217.108 767.555 218.464 765.17 218.283 761.256C217.612 746.802 200.262 749.665 190.038 749.585C189.656 757.53 189.621 765.488 189.933 773.436Z"/><path fill="#FFFFFF" d="M254.894 746.059C260.718 745.895 281.933 744.907 284.995 747.453C292.186 753.431 289.104 761.341 280.095 763.993C282.588 767.604 285.528 770.814 287.894 774.371C286.593 775.621 286.383 775.258 285.841 776.964C283.807 776.486 276.446 766.306 275.014 763.972C269.842 763.945 264.669 763.959 259.498 764.015L259.351 774.505C259.268 779.364 254.873 776.492 254.879 776.678C254.581 766.668 254.253 756.085 254.894 746.059ZM283.231 758.471C289.116 748.664 276.786 749.494 270.859 749.589C267.278 749.647 263 749.781 259.475 749.608C259.365 753.439 259.419 756.272 259.48 760.105C266.089 760.123 277.865 761.085 283.231 758.471Z"/><path fill="#FFFFFF" d="M376.686 745.473C379.891 746.335 380.945 749.38 382.641 752.411C387.367 760.854 393.638 768.695 398.103 777.226C396.705 777.221 395.918 777.28 394.528 777.367L393.536 777.421C391.654 774.5 389.82 771.548 388.034 768.566L377.625 768.524L364.535 768.484C363.049 771.236 361.339 774.013 359.438 776.496C358.711 777.447 355.015 777.714 354.461 777.185C354.712 776.256 355.214 775.288 355.745 774.475C358.122 770.838 360.426 767.504 362.703 763.753C366.184 758.017 369.884 752.186 373.593 746.587C373.956 746.197 374.482 746.027 374.985 745.907C375.552 745.762 376.119 745.618 376.686 745.473ZM366.695 765.049C369.782 765.179 372.794 765.191 375.877 765.258C378.963 765.258 382.05 765.213 385.135 765.122C384.015 763.087 378.79 752.872 377.14 752.041C373.826 752.81 374.237 752.842 372.189 755.908C370.203 758.88 368.526 761.994 366.695 765.049Z"/><path fill="#FFFFFF" d="M766.943 746.004C767.526 745.999 771.371 745.863 771.547 746.115C773.562 749.016 790.819 775.869 790.451 776.983C790.021 777.312 787.127 777.458 786.962 777.32C784.807 775.524 782.213 770.962 780.93 768.5C777.579 768.405 774.227 768.384 770.875 768.436L757.336 768.427C755.729 771.075 754.012 773.631 752.289 776.196C751.515 777.349 747.897 777.349 747.601 776.715C747.667 776.192 765.393 748.009 766.943 746.004ZM759.884 764.893L770.625 765.038C773.158 765.047 775.691 765.024 778.223 764.971C776.567 762.207 770.951 751.828 768.927 750.119C765.772 755.071 762.893 759.853 759.884 764.893Z"/><path fill="#FFFFFF" d="M132.318 746.092C133.928 746.032 136.56 745.429 137.41 746.795C143.555 756.667 150.289 766.959 156.283 776.846C151.469 777.612 152.152 777.881 149.879 773.812C148.9 772.06 147.301 769.953 146.178 768.208C143.297 768.394 140.517 768.353 137.625 768.381C132.373 768.412 128.194 768.335 123.013 767.993C121.487 770.509 118.963 775.243 116.743 777.061C116.376 777.361 112.851 777.348 112.642 776.696C113.301 774.608 129.934 749.446 132.318 746.092ZM124.933 765.335C128.162 764.88 131.478 765.03 134.75 765.05C137.805 765.06 140.861 765.033 143.915 764.97C142.006 761.818 136.617 751.977 134.358 749.849C130.985 754.866 127.84 760.034 124.933 765.335Z"/><path fill="#FFFFFF" d="M825.093 745.629C827.537 745.414 853.719 745.027 846.861 751.358C846.718 751.49 826.841 746.121 821.986 750.557C817.199 754.932 820.315 756.856 824.495 758.052C831.754 760.129 848.79 756.823 850.339 766.513C851.428 775.592 842.567 776.678 835.939 777.472C826.754 777.594 821.885 777.243 813.761 772.766C817.883 767.131 815.745 770.976 824.236 772.946C828.804 774.294 849.964 775.885 845.904 766.032C844.09 761.631 822.97 763.661 818.706 760.117C810.217 753.061 816.584 747.371 825.093 745.629Z"/><path fill="#FFFFFF" d="M529.992 745.635C537.101 744.996 545.095 744.926 551.199 749.299C553.462 750.92 549.903 753.181 549.721 753.064C542.855 748.635 530.586 746.69 524.088 752.599C519.357 756.9 519.789 766.317 524.496 770.51C528.577 774.261 533.722 773.643 538.917 773.576C542.089 773.289 544.766 772.74 547.544 771.128C548.182 770.758 549.6 769.789 550.26 769.615C550.99 769.902 551.041 770.424 551.62 770.892C553.273 772.17 551.954 772.754 550.764 773.531C543.368 778.363 530.524 778.999 522.789 774.918C515.101 770.802 514.738 758.485 518.774 751.78C520.956 748.154 526.097 746.427 529.992 745.635Z"/><path fill="#FFFFFF" d="M636.48 745.221C639.146 745.275 651.005 745.992 653.258 750.179C653.483 750.598 652.677 754.836 649.698 752.565C640.09 745.202 619.075 748.155 622.434 764.002C624.715 774.764 636.122 774.549 644.54 773.161C648.207 771.65 648.648 770.829 651.682 769.209C652.589 769.246 655.094 771.508 654.144 772.315C646.657 778.67 631.706 779.283 623.497 774.011C616.884 769.763 616.13 756.614 621.057 750.787C625.036 746.12 630.913 745.637 636.48 745.221Z"/><path fill="#FFFFFF" d="M413.429 745.745C424.815 745.537 436.121 745.781 447.505 745.656C447.574 745.755 449.338 745.407 449.489 745.799C449.745 746.464 449.667 748.901 449.303 749.388C448.793 749.62 435.102 749.568 433.776 749.545C433.693 753.545 433.646 757.546 433.636 761.547C433.637 766.027 433.947 772.222 433.415 776.691C433.363 777.125 429.874 777.229 429.846 776.69C429.371 767.691 429.798 758.631 429.435 749.597C424.353 749.555 419.277 749.606 414.202 749.544C412.571 749.524 413.163 746.665 413.429 745.745Z"/><path fill="#FFFFFF" d="M882.865 745.738C887.415 745.611 891.647 745.927 896.452 745.747C897.733 745.7 909.699 745.056 910.427 746.221C910.344 746.088 911.149 749.532 909.768 749.53C904.683 749.486 899.598 749.49 894.513 749.542C894.059 756.332 894.125 762.423 894.136 769.226C894.156 770.711 894.759 775.765 893.821 776.822C893.617 777.052 893.353 777.127 893.054 777.139C892.875 777.146 892.696 777.141 892.517 777.147C891.947 777.165 890.81 777.351 890.295 776.94C890.131 776.81 889.965 752.557 890.245 750.594C890.277 750.37 890.335 750.15 890.368 749.925C890.388 749.787 890.392 749.646 890.404 749.507C884.998 749.431 879.195 749.717 873.89 749.246C873.574 749.218 873.283 746.4 873.764 746.222C875.822 745.462 880.575 745.807 882.865 745.738Z"/><path fill="#FFFFFF" d="M479.473 746.068C480.323 746.036 482.954 745.637 483.656 746.276C484.275 746.841 483.798 774.625 483.63 777.181C483.308 777.208 482.986 777.24 482.664 777.276C482.255 777.323 479.796 777.662 479.763 776.968C479.338 768.203 479.237 754.351 479.473 746.068Z"/><path fill="#FFFFFF" d="M320.868 746.074C321.26 746.083 324.83 746.056 324.828 746.32C324.755 754.305 326.172 770.266 324.776 777.686C324.028 777.62 321.437 777.626 320.951 777.191C320.616 776.25 320.735 748.896 320.868 746.074Z"/><path fill="#FFFEFE" fill-opacity="0.29411766" d="M851.429 421.316L850.84 419.844C850.531 419.052 848.995 415.602 849.294 414.807C849.76 413.568 852.127 412.613 853.271 412.335C856.469 411.557 857.909 411.357 860.811 413.338C862.173 414.268 861.87 417.614 861.42 418.999C861.163 419.724 861.738 420.809 861.854 421.682C861.285 421.578 860.976 421.467 860.413 421.528C859.098 419.495 858.082 418.071 855.338 418.177C853.817 418.235 854.781 420.446 854.803 420.809L854.845 421.558C849.99 422.024 845.108 422.137 840.237 421.897C842.756 421.515 849.01 421.361 851.966 421.274L851.429 421.316Z"/><path fill="#D7AD64" fill-opacity="0.95686275" d="M612.567 423.779C612.085 423.614 610.743 423.161 610.456 422.737L610.552 422.604C611.987 422.106 630.277 422.276 632.6 422.433C627.529 424.01 616.473 422.009 612.567 423.779Z"/><path fill="#FFFEFE" fill-opacity="0.39215687" d="M854.845 421.558L854.803 420.809C854.781 420.446 853.817 418.235 855.338 418.177C858.082 418.071 859.098 419.495 860.413 421.528C858.565 421.547 856.685 421.611 854.845 421.558Z"/><path fill="#FFFFFF" fill-opacity="0.94509804" d="M241.597 318.24C241.111 318.083 239.844 317.762 239.626 317.244L239.667 317.15C240.354 316.811 261.502 317.232 263.234 317.384C258.727 317.776 244.348 317.143 241.597 318.24Z"/><path fill="#0EBAE4" fill-opacity="0.98823529" d="M132.436 471.354L133.816 473.29C130.366 474.536 128.222 475.218 124.633 476.238C127.107 474.606 129.84 472.776 132.436 471.354Z"/><path fill="#FFFFFF" fill-opacity="0.98823529" d="M287.894 774.371C288.335 774.882 289.541 776.022 289.629 776.69C289.409 777.162 286.41 776.949 285.841 776.964C286.383 775.258 286.593 775.621 287.894 774.371Z"/></svg>